<?xml version="1.0" encoding="utf-8"?>
<!-- Generator: Adobe Illustrator 21.0.0, SVG Export Plug-In . SVG Version: 6.00 Build 0)  -->
<svg version="1.1" id="Capa_1" xmlns="http://www.w3.org/2000/svg" xmlns:xlink="http://www.w3.org/1999/xlink" x="0px" y="0px"
	 viewBox="0 0 508.7 239" style="enable-background:new 0 0 508.7 239;" xml:space="preserve">
<style type="text/css">
	.st0{clip-path:url(#SVGID_2_);}
	.st1{clip-path:url(#SVGID_4_);fill:#727176;}
	.st2{clip-path:url(#SVGID_4_);fill:#195CF2;}
	.st3{clip-path:url(#SVGID_4_);fill:#2456E2;}
	.st4{clip-path:url(#SVGID_6_);fill:url(#SVGID_7_);}
	.st5{clip-path:url(#SVGID_9_);fill:url(#SVGID_10_);}
	.st6{clip-path:url(#SVGID_12_);fill:url(#SVGID_13_);}
	.st7{clip-path:url(#SVGID_15_);fill:url(#SVGID_16_);}
	.st8{clip-path:url(#SVGID_18_);fill:#2424B5;}
	.st9{clip-path:url(#SVGID_20_);fill:url(#SVGID_21_);}
	.st10{clip-path:url(#SVGID_23_);fill:url(#SVGID_24_);}
	.st11{clip-path:url(#SVGID_26_);fill:url(#SVGID_27_);}
	.st12{opacity:0.6;clip-path:url(#SVGID_29_);}
	.st13{clip-path:url(#SVGID_31_);}
	.st14{clip-path:url(#SVGID_35_);}
	.st15{clip-path:url(#SVGID_39_);}
	.st16{clip-path:url(#SVGID_43_);}
	.st17{clip-path:url(#SVGID_47_);}
	.st18{clip-path:url(#SVGID_51_);}
	.st19{clip-path:url(#SVGID_53_);}
	.st20{opacity:0.3;clip-path:url(#SVGID_51_);}
	.st21{clip-path:url(#SVGID_57_);}
	.st22{clip-path:url(#SVGID_61_);}
	.st23{clip-path:url(#SVGID_65_);}
	.st24{clip-path:url(#SVGID_69_);}
	.st25{opacity:0.1;clip-path:url(#SVGID_51_);}
	.st26{clip-path:url(#SVGID_73_);}
</style>
<g>
	<defs>
		<rect id="SVGID_1_" x="-29" y="-31.9" width="537.7" height="284.9"/>
	</defs>
	<clipPath id="SVGID_2_">
		<use xlink:href="#SVGID_1_"  style="overflow:visible;"/>
	</clipPath>
	<g class="st0">
		<defs>
			<rect id="SVGID_3_" x="-29" y="-31.9" width="537.7" height="284.9"/>
		</defs>
		<clipPath id="SVGID_4_">
			<use xlink:href="#SVGID_3_"  style="overflow:visible;"/>
		</clipPath>
		<path class="st1" d="M268.8,49.3c3.3,0,6.6,0.4,9.9,1.2c3.2,0.8,5.8,1.9,7.8,3.3v15.3c-2.4-1.4-4.8-2.6-7.2-3.7
			c-2.4-1-5.2-1.6-8.4-1.6c-1.9,0-3.5,0.3-4.8,0.8c-1.4,0.6-2,1.5-2,2.8c0,1.4,0.8,2.5,2.5,3.2c1.6,0.7,3.6,1.5,6,2.4l6.1,2.3
			c4.1,1.6,7,3.7,8.8,6.4c1.7,2.7,2.6,5.4,2.6,8.1c0,3.6-1,6.8-3.1,9.6c-2.1,2.8-4.9,5-8.5,6.6c-3.5,1.6-7.5,2.4-11.9,2.4
			c-3.4,0-6.7-0.6-10.1-1.8c-3.3-1.2-6.2-2.6-8.7-4.4V87c2.7,2,5.6,3.7,8.8,5c3.1,1.3,6.3,1.9,9.4,1.9c2,0,3.6-0.2,4.8-0.7
			c1.2-0.5,1.8-1.3,1.8-2.5c0-0.8-0.5-1.6-1.4-2.2c-0.9-0.6-2.1-1.2-3.6-1.6l-8-2.5c-3.2-1-5.6-2.4-7.4-4.1c-1.7-1.7-3-3.7-3.6-5.9
			c-0.7-2.2-1-4.4-1-6.6c0-4,1-7.4,3-10.1c2-2.7,4.7-4.8,7.9-6.2C261.7,50,265.2,49.3,268.8,49.3"/>
		<polygon class="st1" points="337.7,72.6 337.7,84.4 315.2,84.4 315.2,93.7 340.6,93.7 340.6,107.2 299.4,107.2 299.4,50.5 
			340.6,50.5 340.6,63.6 315.2,63.6 315.2,72.6 		"/>
		<polygon class="st1" points="404.8,50.5 404.8,108 399.3,108 368.9,79.4 368.9,107.2 353.1,107.2 353.1,49.7 358.7,49.7 389,78.9 
			389,50.5 		"/>
		<path class="st1" d="M436.9,49.3c3.3,0,6.6,0.4,9.9,1.2c3.2,0.8,5.8,1.9,7.8,3.3v15.3c-2.4-1.4-4.8-2.6-7.2-3.7
			c-2.4-1-5.2-1.6-8.4-1.6c-1.9,0-3.5,0.3-4.8,0.8c-1.4,0.6-2,1.5-2,2.8c0,1.4,0.8,2.5,2.5,3.2c1.6,0.7,3.6,1.5,6,2.4l6.1,2.3
			c4.1,1.6,7,3.7,8.7,6.4c1.7,2.7,2.6,5.4,2.6,8.1c0,3.6-1,6.8-3.1,9.6c-2.1,2.8-4.9,5-8.5,6.6c-3.6,1.6-7.5,2.4-11.9,2.4
			c-3.4,0-6.7-0.6-10.1-1.8c-3.3-1.2-6.2-2.6-8.7-4.4V87c2.7,2,5.6,3.7,8.8,5c3.1,1.3,6.3,1.9,9.4,1.9c2,0,3.6-0.2,4.8-0.7
			c1.2-0.5,1.8-1.3,1.8-2.5c0-0.8-0.5-1.6-1.4-2.2c-0.9-0.6-2.1-1.2-3.6-1.6l-8-2.5c-3.2-1-5.6-2.4-7.4-4.1c-1.7-1.7-3-3.7-3.6-5.9
			c-0.7-2.2-1-4.4-1-6.6c0-4,1-7.4,3-10.1c2-2.7,4.7-4.8,7.9-6.2C429.8,50,433.2,49.3,436.9,49.3"/>
		<polygon class="st1" points="505.7,72.6 505.7,84.4 483.2,84.4 483.2,93.7 508.7,93.7 508.7,107.2 467.4,107.2 467.4,50.5 
			508.7,50.5 508.7,63.6 483.2,63.6 483.2,72.6 		"/>
		<path class="st1" d="M280.5,118.1c3.6,0,7,0.6,10.4,1.8c3.4,1.2,6.4,2.9,9.1,5.2c2.7,2.3,4.9,5.1,6.5,8.4c1.6,3.3,2.5,7,2.5,11.1
			c0,5.4-1.3,10-3.8,13.8c-2.5,3.9-5.8,6.8-9.8,8.8c-4,2-8.3,3-12.8,3c-2.6,0-5-0.3-7.1-0.8c-2.1-0.5-3.9-1.2-5.4-2v20.7h-19.5v-70
			H280.5z M270,136.4v16.2c1.2,0.4,2.5,0.8,3.8,1c1.4,0.3,2.8,0.4,4.3,0.4c3.1,0,5.6-1,7.7-2.9c2.1-1.9,3.1-4.1,3.1-6.6
			c0-2.9-1-4.9-3.1-6.2c-2.1-1.3-4.6-1.9-7.7-1.9H270z"/>
		<path class="st1" d="M347.7,117.1l32.4,71h-22.8l-3.4-9.4h-22.1l-3.4,9.4h-22.8l32.4-71H347.7z M342.8,148.6l-5.3,14.4h10.6
			L342.8,148.6z"/>
		<polygon class="st1" points="434.5,118.1 434.5,135.3 413.9,135.3 413.9,187.8 394.4,187.8 394.4,135.3 373.8,135.3 373.8,118.1 
					"/>
		<polygon class="st1" points="462.7,118.1 462.7,145.8 487.7,145.8 487.7,118.1 507.2,118.1 507.2,188.1 487.7,188.1 487.7,163 
			462.7,163 462.7,188.1 443.1,188.1 443.1,118.1 		"/>
		<path class="st2" d="M153.1,207.6c6.7,1.4,10.9,8,9.5,14.6c-1.4,6.7-8,10.9-14.6,9.5c-6.7-1.4-10.9-8-9.5-14.6
			C139.8,210.4,146.4,206.2,153.1,207.6"/>
		<path class="st3" d="M225.6,98.2c1.3,5.4-2,10.7-7.4,12c-5.4,1.3-10.7-2-12-7.4c-1.3-5.4,2-10.7,7.4-12
			C218.9,89.5,224.3,92.8,225.6,98.2"/>
	</g>
	<g class="st0">
		<defs>
			<path id="SVGID_5_" d="M148.4,80.3c-4.1,1-6.6,5.1-5.6,9.1c1,4.1,5.1,6.6,9.1,5.6c4.1-1,6.6-5.1,5.6-9.1
				c-0.8-3.5-3.9-5.8-7.4-5.8C149.6,80.1,149,80.1,148.4,80.3"/>
		</defs>
		<clipPath id="SVGID_6_">
			<use xlink:href="#SVGID_5_"  style="overflow:visible;"/>
		</clipPath>
		
			<linearGradient id="SVGID_7_" gradientUnits="userSpaceOnUse" x1="-29" y1="252.9996" x2="-28" y2="252.9996" gradientTransform="matrix(377.6365 455.3852 455.3852 -377.6365 -104239.4453 108680.7109)">
			<stop  offset="0" style="stop-color:#EE5866"/>
			<stop  offset="0.204" style="stop-color:#EE5866"/>
			<stop  offset="0.4626" style="stop-color:#8907ED"/>
			<stop  offset="0.4955" style="stop-color:#A232EB"/>
			<stop  offset="0.5295" style="stop-color:#B757EA"/>
			<stop  offset="0.5652" style="stop-color:#C875E9"/>
			<stop  offset="0.6027" style="stop-color:#D68CE8"/>
			<stop  offset="0.6426" style="stop-color:#E09DE7"/>
			<stop  offset="0.6867" style="stop-color:#E5A7E7"/>
			<stop  offset="0.743" style="stop-color:#E7AAE7"/>
			<stop  offset="1" style="stop-color:#E7AAE7"/>
		</linearGradient>
		<polygon class="st4" points="151.7,71.9 166.4,89.5 148.7,104.2 134,86.6 		"/>
	</g>
	<g class="st0">
		<defs>
			<path id="SVGID_8_" d="M29.9,187.9c-4.1,1-6.6,5.1-5.6,9.2c1,4.1,5.1,6.6,9.2,5.6c4.1-1,6.6-5.1,5.6-9.2c-0.8-3.5-4-5.8-7.4-5.8
				C31.1,187.7,30.5,187.7,29.9,187.9"/>
		</defs>
		<clipPath id="SVGID_9_">
			<use xlink:href="#SVGID_8_"  style="overflow:visible;"/>
		</clipPath>
		
			<linearGradient id="SVGID_10_" gradientUnits="userSpaceOnUse" x1="-29" y1="252.9996" x2="-28" y2="252.9996" gradientTransform="matrix(377.6365 455.3852 455.3852 -377.6365 -104362.5859 108782.8281)">
			<stop  offset="0" style="stop-color:#EE5866"/>
			<stop  offset="0.204" style="stop-color:#EE5866"/>
			<stop  offset="0.4626" style="stop-color:#8907ED"/>
			<stop  offset="0.4955" style="stop-color:#A232EB"/>
			<stop  offset="0.5295" style="stop-color:#B757EA"/>
			<stop  offset="0.5652" style="stop-color:#C875E9"/>
			<stop  offset="0.6027" style="stop-color:#D68CE8"/>
			<stop  offset="0.6426" style="stop-color:#E09DE7"/>
			<stop  offset="0.6867" style="stop-color:#E5A7E7"/>
			<stop  offset="0.743" style="stop-color:#E7AAE7"/>
			<stop  offset="1" style="stop-color:#E7AAE7"/>
		</linearGradient>
		<polygon class="st5" points="33.2,179.4 47.9,197.2 30.1,211.9 15.4,194.2 		"/>
	</g>
	<g class="st0">
		<defs>
			<path id="SVGID_11_" d="M165.7,54.5c-1.6,10.2,5.4,19.7,15.5,21.3c10.2,1.6,19.7-5.4,21.3-15.5c1.6-10.2-5.4-19.7-15.5-21.3
				c-1-0.2-1.9-0.2-2.9-0.2C175.1,38.7,167.1,45.3,165.7,54.5"/>
		</defs>
		<clipPath id="SVGID_12_">
			<use xlink:href="#SVGID_11_"  style="overflow:visible;"/>
		</clipPath>
		
			<linearGradient id="SVGID_13_" gradientUnits="userSpaceOnUse" x1="-29" y1="252.9999" x2="-28" y2="252.9999" gradientTransform="matrix(54.9766 -589.0353 -589.0353 -54.9766 150785.7813 -2916.6279)">
			<stop  offset="0" style="stop-color:#EE5866"/>
			<stop  offset="0.204" style="stop-color:#EE5866"/>
			<stop  offset="0.4626" style="stop-color:#8907ED"/>
			<stop  offset="0.4955" style="stop-color:#A232EB"/>
			<stop  offset="0.5295" style="stop-color:#B757EA"/>
			<stop  offset="0.5652" style="stop-color:#C875E9"/>
			<stop  offset="0.6027" style="stop-color:#D68CE8"/>
			<stop  offset="0.6426" style="stop-color:#E09DE7"/>
			<stop  offset="0.6867" style="stop-color:#E5A7E7"/>
			<stop  offset="0.743" style="stop-color:#E7AAE7"/>
			<stop  offset="1" style="stop-color:#E7AAE7"/>
		</linearGradient>
		<polygon class="st6" points="160.5,77 164.5,35 207.7,39 203.7,81 		"/>
	</g>
	<g class="st0">
		<defs>
			<path id="SVGID_14_" d="M8.4,159.8c-4.1,6.6-2,15.3,4.6,19.4c6.6,4.1,15.3,2,19.4-4.6c4.1-6.6,2-15.3-4.6-19.4
				c-2.3-1.4-4.8-2.1-7.3-2.1C15.7,153,11,155.4,8.4,159.8"/>
		</defs>
		<clipPath id="SVGID_15_">
			<use xlink:href="#SVGID_14_"  style="overflow:visible;"/>
		</clipPath>
		
			<linearGradient id="SVGID_16_" gradientUnits="userSpaceOnUse" x1="-29" y1="252.9989" x2="-28" y2="252.9989" gradientTransform="matrix(377.6365 455.3852 455.3852 -377.6365 -104355.4063 108776.875)">
			<stop  offset="0" style="stop-color:#EE5866"/>
			<stop  offset="0.204" style="stop-color:#EE5866"/>
			<stop  offset="0.4626" style="stop-color:#8907ED"/>
			<stop  offset="0.4955" style="stop-color:#A232EB"/>
			<stop  offset="0.5295" style="stop-color:#B757EA"/>
			<stop  offset="0.5652" style="stop-color:#C875E9"/>
			<stop  offset="0.6027" style="stop-color:#D68CE8"/>
			<stop  offset="0.6426" style="stop-color:#E09DE7"/>
			<stop  offset="0.6867" style="stop-color:#E5A7E7"/>
			<stop  offset="0.743" style="stop-color:#E7AAE7"/>
			<stop  offset="1" style="stop-color:#E7AAE7"/>
		</linearGradient>
		<polygon class="st7" points="23.4,137.2 51.3,170.9 17.4,199 -10.5,165.3 		"/>
	</g>
	<g class="st0">
		<defs>
			<rect id="SVGID_17_" x="-29" y="-31.9" width="537.7" height="284.9"/>
		</defs>
		<clipPath id="SVGID_18_">
			<use xlink:href="#SVGID_17_"  style="overflow:visible;"/>
		</clipPath>
		<path class="st8" d="M130.8,211.8c-1.3,2.8-4.6,4-7.4,2.7c-2.8-1.3-4-4.6-2.7-7.4c1.3-2.8,4.6-4,7.4-2.7
			C130.9,205.7,132.1,209,130.8,211.8"/>
	</g>
	<g class="st0">
		<defs>
			<path id="SVGID_19_" d="M27.2,47.1c-5.4,1.3-8.7,6.7-7.4,12c1.3,5.4,6.7,8.7,12,7.4c5.4-1.3,8.7-6.7,7.4-12
				c-1.1-4.6-5.2-7.7-9.7-7.7C28.7,46.8,27.9,46.9,27.2,47.1"/>
		</defs>
		<clipPath id="SVGID_20_">
			<use xlink:href="#SVGID_19_"  style="overflow:visible;"/>
		</clipPath>
		
			<linearGradient id="SVGID_21_" gradientUnits="userSpaceOnUse" x1="-29" y1="252.9995" x2="-28" y2="252.9995" gradientTransform="matrix(377.6365 455.3852 455.3852 -377.6365 -104295.8281 108727.4688)">
			<stop  offset="0" style="stop-color:#EE5866"/>
			<stop  offset="0.204" style="stop-color:#EE5866"/>
			<stop  offset="0.4626" style="stop-color:#8907ED"/>
			<stop  offset="0.4955" style="stop-color:#A232EB"/>
			<stop  offset="0.5295" style="stop-color:#B757EA"/>
			<stop  offset="0.5652" style="stop-color:#C875E9"/>
			<stop  offset="0.6027" style="stop-color:#D68CE8"/>
			<stop  offset="0.6426" style="stop-color:#E09DE7"/>
			<stop  offset="0.6867" style="stop-color:#E5A7E7"/>
			<stop  offset="0.743" style="stop-color:#E7AAE7"/>
			<stop  offset="1" style="stop-color:#E7AAE7"/>
		</linearGradient>
		<polygon class="st9" points="31.5,36 50.8,59.3 27.4,78.6 8.2,55.4 		"/>
	</g>
	<g class="st0">
		<defs>
			<path id="SVGID_22_" d="M46.5,67.1c-2.5,0.6-4,3.1-3.4,5.5c0.6,2.5,3.1,4,5.5,3.4c2.5-0.6,4-3.1,3.4-5.5
				c-0.5-2.1-2.4-3.5-4.4-3.5C47.2,66.9,46.9,67,46.5,67.1"/>
		</defs>
		<clipPath id="SVGID_23_">
			<use xlink:href="#SVGID_22_"  style="overflow:visible;"/>
		</clipPath>
		
			<linearGradient id="SVGID_24_" gradientUnits="userSpaceOnUse" x1="-29" y1="252.9998" x2="-28" y2="252.9998" gradientTransform="matrix(377.6365 455.3852 455.3852 -377.6365 -104292.3281 108724.5625)">
			<stop  offset="0" style="stop-color:#EE5866"/>
			<stop  offset="0.204" style="stop-color:#EE5866"/>
			<stop  offset="0.4626" style="stop-color:#8907ED"/>
			<stop  offset="0.4955" style="stop-color:#A232EB"/>
			<stop  offset="0.5295" style="stop-color:#B757EA"/>
			<stop  offset="0.5652" style="stop-color:#C875E9"/>
			<stop  offset="0.6027" style="stop-color:#D68CE8"/>
			<stop  offset="0.6426" style="stop-color:#E09DE7"/>
			<stop  offset="0.6867" style="stop-color:#E5A7E7"/>
			<stop  offset="0.743" style="stop-color:#E7AAE7"/>
			<stop  offset="1" style="stop-color:#E7AAE7"/>
		</linearGradient>
		<polygon class="st10" points="48.5,62 57.3,72.6 46.6,81.5 37.8,70.8 		"/>
	</g>
	<g class="st0">
		<defs>
			<path id="SVGID_25_" d="M86.3,11.1c-10.2,5.2-17.7,15.2-20.5,26.3c-3.1,12.2,2.1,25.3-3.3,37.1c-3,6.6-8.7,12.1-15.7,13.8
				c-4.6,1.1-9.4,0.6-14.1,1.2c-12,1.7-22.3,12-23.8,24c-1.6,12,5.7,24.6,16.8,29.3c11.2,4.7,25.3,1,32.7-8.5
				c3.5-4.5,7.5-10.9,13.1-9.5c3.8,1,5.5,5.3,7.6,8.6c7,11,24.5,13.1,34,4.2c3.5-3.3,8-8.2,12.1-5.7c2.6,1.6,2.8,5.3,2.5,8.3
				c-0.4,5.6-1.4,11.1-2.9,16.6c-1,3.7-2.8,7.9-6.6,8.8c-4.3,1-7.9-2.8-11.3-5.6c-11.4-9.8-29.9-10.2-41.8-0.9
				c-11.9,9.3-15.9,27.3-9.2,40.7c6.7,13.5,23.6,21,38.1,17.1c14.5-3.9,25.3-19,24.3-34c-0.2-2.7-0.6-5.9,1.3-7.9
				c3-3.3,8.4-0.4,11.7,2.6c5.6,5.1,10.9,10.6,17.4,14.7c19.5,12.3,48,7.5,62.3-10.6c13.2-16.7,12.6-42.6-0.5-59.1
				c-1.1-1.4-2.3-2.7-3.5-3.9c-16.5-16.1-45.3-17.3-63.1-2.6c-5,4.2-11,9.8-17,7.3c-5.1-2.1-6.3-8.6-8.7-13.5
				c-3.4-6.9-10.5-11.9-18.2-12.6c-7.7-0.7-15.6,2.9-20.2,9.1c-2.5,3.5-4.8,8.1-9.1,8.4c-4.8,0.4-7.9-5.2-8.6-10
				c-1.2-7.8,0.7-16.9,7.5-20.8c8.1-4.7,18.2,0.1,27.4,1.8c16.5,3.1,34.5-5.6,42.3-20.4c7.9-14.8,5-34.6-6.7-46.5
				C125.2,11.1,114.6,7,103.9,7C97.8,7,91.8,8.3,86.3,11.1"/>
		</defs>
		<clipPath id="SVGID_26_">
			<use xlink:href="#SVGID_25_"  style="overflow:visible;"/>
		</clipPath>
		
			<linearGradient id="SVGID_27_" gradientUnits="userSpaceOnUse" x1="-29" y1="253.0234" x2="-28" y2="253.0234" gradientTransform="matrix(377.6365 455.3852 455.3852 -377.6365 -104283.3281 108717.1016)">
			<stop  offset="0" style="stop-color:#EE5866"/>
			<stop  offset="0.1689" style="stop-color:#EE5866"/>
			<stop  offset="0.1984" style="stop-color:#EA556B"/>
			<stop  offset="0.2338" style="stop-color:#DF4C7A"/>
			<stop  offset="0.2723" style="stop-color:#CD3E92"/>
			<stop  offset="0.3128" style="stop-color:#B429B4"/>
			<stop  offset="0.3547" style="stop-color:#9410DF"/>
			<stop  offset="0.3671" style="stop-color:#8907ED"/>
			<stop  offset="0.4499" style="stop-color:#592DE8"/>
			<stop  offset="0.5413" style="stop-color:#2754E2"/>
			<stop  offset="0.5562" style="stop-color:#2A64E8"/>
			<stop  offset="0.5918" style="stop-color:#3185F5"/>
			<stop  offset="0.6215" style="stop-color:#3599FC"/>
			<stop  offset="0.6415" style="stop-color:#36A0FF"/>
			<stop  offset="1" style="stop-color:#36A0FF"/>
		</linearGradient>
		<polygon class="st11" points="135.9,-99.6 329.4,133.6 95.8,327.3 -97.6,94.1 		"/>
	</g>
	<g class="st0">
		<defs>
			<rect id="SVGID_28_" x="-29" y="-31.9" width="537.7" height="284.9"/>
		</defs>
		<clipPath id="SVGID_29_">
			<use xlink:href="#SVGID_28_"  style="overflow:visible;"/>
		</clipPath>
		<g class="st12">
			<g>
				<defs>
					<rect id="SVGID_30_" x="11.6" y="111.2" width="141.6" height="141.8"/>
				</defs>
				<clipPath id="SVGID_31_">
					<use xlink:href="#SVGID_30_"  style="overflow:visible;"/>
				</clipPath>
				<g class="st13">
					<defs>
						<rect id="SVGID_32_" x="11.6" y="111.2" width="141.6" height="141.8"/>
					</defs>
					<clipPath id="SVGID_33_">
						<use xlink:href="#SVGID_32_"  style="overflow:visible;"/>
					</clipPath>
					<g style="clip-path:url(#SVGID_33_);">
						
							<image style="overflow:visible;" width="590" height="591" xlink:href="BCB78803.png"  transform="matrix(0.24 0 0 0.24 11.56 111.16)">
						</image>
					</g>
				</g>
			</g>
		</g>
		<g class="st12">
			<g>
				<defs>
					<rect id="SVGID_34_" x="-29" y="50.7" width="136.6" height="136.3"/>
				</defs>
				<clipPath id="SVGID_35_">
					<use xlink:href="#SVGID_34_"  style="overflow:visible;"/>
				</clipPath>
				<g class="st14">
					<defs>
						<rect id="SVGID_36_" x="-29" y="50.7" width="136.6" height="136.3"/>
					</defs>
					<clipPath id="SVGID_37_">
						<use xlink:href="#SVGID_36_"  style="overflow:visible;"/>
					</clipPath>
					<g style="clip-path:url(#SVGID_37_);">
						
							<image style="overflow:visible;" width="569" height="568" xlink:href="BCB78801.png"  transform="matrix(0.24 0 0 0.24 -29 50.68)">
						</image>
					</g>
				</g>
			</g>
		</g>
		<g class="st12">
			<g>
				<defs>
					<rect id="SVGID_38_" x="36.5" y="59.1" width="123.4" height="123.4"/>
				</defs>
				<clipPath id="SVGID_39_">
					<use xlink:href="#SVGID_38_"  style="overflow:visible;"/>
				</clipPath>
				<g class="st15">
					<defs>
						<rect id="SVGID_40_" x="36.5" y="59.1" width="123.4" height="123.4"/>
					</defs>
					<clipPath id="SVGID_41_">
						<use xlink:href="#SVGID_40_"  style="overflow:visible;"/>
					</clipPath>
					<g style="clip-path:url(#SVGID_41_);">
						
							<image style="overflow:visible;" width="514" height="514" xlink:href="BCB78807.png"  transform="matrix(0.24 0 0 0.24 36.52 59.08)">
						</image>
					</g>
				</g>
			</g>
		</g>
		<g class="st12">
			<g>
				<defs>
					<rect id="SVGID_42_" x="26.7" y="-31.9" width="155.3" height="155.3"/>
				</defs>
				<clipPath id="SVGID_43_">
					<use xlink:href="#SVGID_42_"  style="overflow:visible;"/>
				</clipPath>
				<g class="st16">
					<defs>
						<rect id="SVGID_44_" x="26.7" y="-31.9" width="155.3" height="155.3"/>
					</defs>
					<clipPath id="SVGID_45_">
						<use xlink:href="#SVGID_44_"  style="overflow:visible;"/>
					</clipPath>
					<g style="clip-path:url(#SVGID_45_);">
						
							<image style="overflow:visible;" width="647" height="647" xlink:href="BCB78800.png"  transform="matrix(0.24 0 0 0.24 26.68 -31.88)">
						</image>
					</g>
				</g>
			</g>
		</g>
		<g class="st12">
			<g>
				<defs>
					<rect id="SVGID_46_" x="88.6" y="66.8" width="172.1" height="171.8"/>
				</defs>
				<clipPath id="SVGID_47_">
					<use xlink:href="#SVGID_46_"  style="overflow:visible;"/>
				</clipPath>
				<g class="st17">
					<defs>
						<rect id="SVGID_48_" x="88.6" y="66.8" width="172.1" height="171.8"/>
					</defs>
					<clipPath id="SVGID_49_">
						<use xlink:href="#SVGID_48_"  style="overflow:visible;"/>
					</clipPath>
					<g style="clip-path:url(#SVGID_49_);">
						
							<image style="overflow:visible;" width="717" height="716" xlink:href="BCB7880E.png"  transform="matrix(0.24 0 0 0.24 88.6 66.76)">
						</image>
					</g>
				</g>
			</g>
		</g>
	</g>
	<g class="st0">
		<defs>
			<path id="SVGID_50_" d="M86.3,11.1c-10.2,5.2-17.7,15.2-20.5,26.3c-3.1,12.2,2.1,25.3-3.3,37.1c-3,6.6-8.7,12.1-15.7,13.8
				c-4.6,1.1-9.4,0.6-14.1,1.2c-12,1.7-22.3,12-23.8,24c-1.6,12,5.7,24.6,16.8,29.3c11.2,4.7,25.3,1,32.7-8.5
				c3.5-4.5,7.5-10.9,13.1-9.5c3.8,1,5.5,5.3,7.6,8.6c7,11,24.5,13.1,34,4.2c3.5-3.3,8-8.2,12.1-5.7c2.6,1.6,2.8,5.3,2.5,8.3
				c-0.4,5.6-1.4,11.1-2.9,16.6c-1,3.7-2.8,7.9-6.6,8.8c-4.3,1-7.9-2.8-11.3-5.6c-11.4-9.8-29.9-10.2-41.8-0.9
				c-11.9,9.3-15.9,27.3-9.2,40.7c6.7,13.5,23.6,21,38.1,17.1c14.5-3.9,25.3-19,24.3-34c-0.2-2.7-0.6-5.9,1.3-7.9
				c3-3.3,8.4-0.4,11.7,2.6c5.6,5.1,10.9,10.6,17.4,14.7c19.5,12.3,48,7.5,62.3-10.6c13.2-16.7,12.6-42.6-0.5-59.1
				c-1.1-1.4-2.3-2.7-3.5-3.9c-16.5-16.1-45.3-17.3-63.1-2.6c-5,4.2-11,9.8-17,7.3c-5.1-2.1-6.3-8.6-8.7-13.5
				c-3.4-6.9-10.5-11.9-18.2-12.6c-7.7-0.7-15.6,2.9-20.2,9.1c-2.5,3.5-4.8,8.1-9.1,8.4c-4.8,0.4-7.9-5.2-8.6-10
				c-1.2-7.8,0.7-16.9,7.5-20.8c8.1-4.7,18.2,0.1,27.4,1.8c16.5,3.1,34.5-5.6,42.3-20.4c7.9-14.8,5-34.6-6.7-46.5
				C125.2,11.1,114.6,7,103.9,7C97.8,7,91.8,8.3,86.3,11.1"/>
		</defs>
		<clipPath id="SVGID_51_">
			<use xlink:href="#SVGID_50_"  style="overflow:visible;"/>
		</clipPath>
		<g class="st18">
			<g>
				<defs>
					<rect id="SVGID_52_" x="0.8" y="19.2" width="128.4" height="128.6"/>
				</defs>
				<clipPath id="SVGID_53_">
					<use xlink:href="#SVGID_52_"  style="overflow:visible;"/>
				</clipPath>
				<g class="st19">
					<defs>
						<rect id="SVGID_54_" x="0.8" y="19.2" width="128.4" height="128.6"/>
					</defs>
					<clipPath id="SVGID_55_">
						<use xlink:href="#SVGID_54_"  style="overflow:visible;"/>
					</clipPath>
					<g style="clip-path:url(#SVGID_55_);">
						
							<image style="overflow:visible;" width="535" height="536" xlink:href="BCB7880F.png"  transform="matrix(0.24 0 0 0.24 0.76 19.24)">
						</image>
					</g>
				</g>
			</g>
		</g>
		<g class="st20">
			<g>
				<defs>
					<rect id="SVGID_56_" x="-13.2" y="5.6" width="156" height="156"/>
				</defs>
				<clipPath id="SVGID_57_">
					<use xlink:href="#SVGID_56_"  style="overflow:visible;"/>
				</clipPath>
				<g class="st21">
					<defs>
						<rect id="SVGID_58_" x="-13.2" y="5.6" width="156" height="156"/>
					</defs>
					<clipPath id="SVGID_59_">
						<use xlink:href="#SVGID_58_"  style="overflow:visible;"/>
					</clipPath>
					<g style="clip-path:url(#SVGID_59_);">
						
							<image style="overflow:visible;" width="650" height="650" xlink:href="BCB78802.png"  transform="matrix(0.24 0 0 0.24 -13.16 5.56)">
						</image>
					</g>
				</g>
			</g>
		</g>
		<g class="st18">
			<g>
				<defs>
					<rect id="SVGID_60_" x="61" y="107.8" width="120.7" height="126.7"/>
				</defs>
				<clipPath id="SVGID_61_">
					<use xlink:href="#SVGID_60_"  style="overflow:visible;"/>
				</clipPath>
				<g class="st22">
					<defs>
						<rect id="SVGID_62_" x="61" y="107.8" width="120.7" height="126.7"/>
					</defs>
					<clipPath id="SVGID_63_">
						<use xlink:href="#SVGID_62_"  style="overflow:visible;"/>
					</clipPath>
					<g style="clip-path:url(#SVGID_63_);">
						
							<image style="overflow:visible;" width="503" height="528" xlink:href="BCB78805.png"  transform="matrix(0.24 0 0 0.24 61 107.8)">
						</image>
					</g>
				</g>
			</g>
		</g>
		<g class="st18">
			<g>
				<defs>
					<rect id="SVGID_64_" x="63.4" y="62.2" width="128.6" height="131"/>
				</defs>
				<clipPath id="SVGID_65_">
					<use xlink:href="#SVGID_64_"  style="overflow:visible;"/>
				</clipPath>
				<g class="st23">
					<defs>
						<rect id="SVGID_66_" x="63.4" y="62.2" width="128.6" height="131"/>
					</defs>
					<clipPath id="SVGID_67_">
						<use xlink:href="#SVGID_66_"  style="overflow:visible;"/>
					</clipPath>
					<g transform="matrix(1 0 0 1 -3.814697e-06 0)" style="clip-path:url(#SVGID_67_);">
						
							<image style="overflow:visible;" width="536" height="546" xlink:href="BCB78806.png"  transform="matrix(0.24 0 0 0.24 63.4 62.2)">
						</image>
					</g>
				</g>
			</g>
		</g>
		<g class="st18">
			<g>
				<defs>
					<rect id="SVGID_68_" x="13" y="60" width="114" height="116.9"/>
				</defs>
				<clipPath id="SVGID_69_">
					<use xlink:href="#SVGID_68_"  style="overflow:visible;"/>
				</clipPath>
				<g class="st24">
					<defs>
						<rect id="SVGID_70_" x="13" y="60" width="114" height="116.9"/>
					</defs>
					<clipPath id="SVGID_71_">
						<use xlink:href="#SVGID_70_"  style="overflow:visible;"/>
					</clipPath>
					<g style="clip-path:url(#SVGID_71_);">
						
							<image style="overflow:visible;" width="475" height="487" xlink:href="4686A870.png"  transform="matrix(0.24 0 0 0.24 13 60.04)">
						</image>
					</g>
				</g>
			</g>
		</g>
		<g class="st25">
			<g>
				<defs>
					<rect id="SVGID_72_" x="-1.4" y="64.6" width="142.8" height="111.8"/>
				</defs>
				<clipPath id="SVGID_73_">
					<use xlink:href="#SVGID_72_"  style="overflow:visible;"/>
				</clipPath>
				<g class="st26">
					<defs>
						<rect id="SVGID_74_" x="-1.4" y="64.6" width="142.8" height="111.8"/>
					</defs>
					<clipPath id="SVGID_75_">
						<use xlink:href="#SVGID_74_"  style="overflow:visible;"/>
					</clipPath>
					<g style="clip-path:url(#SVGID_75_);">
						
							<image style="overflow:visible;" width="595" height="466" xlink:href="4686A877.png"  transform="matrix(0.24 0 0 0.24 -1.4 64.6)">
						</image>
					</g>
				</g>
			</g>
		</g>
	</g>
</g>
</svg>
