<svg width="127" height="109" viewBox="0 0 127 109" fill="none" xmlns="http://www.w3.org/2000/svg">
<circle cx="79.9333" cy="40.6933" r="33.4267" fill="#005CF5"/>
<circle cx="21.0733" cy="55.9533" r="21.0733" fill="#005CF5"/>
<circle cx="97.3734" cy="94.4667" r="14.5333" fill="#005CF5"/>
<circle cx="49.4133" cy="85.7467" r="11.6267" fill="#005CF5"/>
<circle cx="70.4868" cy="102.46" r="6.54" fill="#005CF5"/>
<circle cx="39.24" cy="8.72" r="8.72" fill="#005CF5"/>
<circle cx="116.993" cy="67.58" r="9.44667" fill="#005CF5"/>
<circle cx="36.3334" cy="29.0667" r="2.90667" fill="#005CF5"/>
<path d="M88.6533 90.1067C90.3973 78.48 78.2377 73.1511 71.9399 71.94L101.007 63.9467C94.0306 74.992 99.5533 84.5356 103.187 87.9267C98.5844 88.6533 89.2346 90.1067 88.6533 90.1067Z" fill="#005CF5"/>
<path d="M34.1532 41.42C44.3267 48.6867 45.78 36.3333 47.96 34.1533C64.6734 42.8733 55.9534 52.32 55.9534 52.32C55.9534 52.32 39.9667 50.14 38.5134 59.5867C32.4578 56.1956 22.3269 32.9728 34.1532 41.42Z" fill="#005CF5"/>
</svg>
